<?xml version="1.0" standalone="no"?>
<!DOCTYPE svg PUBLIC "-//W3C//DTD SVG 20010904//EN"
 "http://www.w3.org/TR/2001/REC-SVG-20010904/DTD/svg10.dtd">
<svg version="1.0" xmlns="http://www.w3.org/2000/svg"
 width="190.000000pt" height="61.000000pt" viewBox="0 0 190.000000 61.000000"
 preserveAspectRatio="xMidYMid meet">

<g transform="translate(0.000000,61.000000) scale(0.100000,-0.100000)"
fill="#000000" stroke="none">
<path d="M68 519 c-24 -14 -23 -23 16 -113 34 -79 35 -79 47 -52 9 18 17 25
28 20 9 -3 22 -8 29 -11 8 -3 5 11 -8 42 -25 58 -25 55 5 55 19 0 32 -14 66
-71 42 -70 42 -70 26 -105 -20 -42 -31 -43 -46 -5 -7 15 -24 34 -39 40 -22 11
-28 10 -39 -5 -18 -25 -17 -29 18 -117 48 -119 94 -127 145 -25 l26 51 29 -51
c65 -115 104 -93 174 98 9 25 21 53 26 63 6 11 6 17 -2 17 -6 0 -3 8 6 17 16
16 16 17 -1 30 -17 12 -17 13 2 14 10 1 23 1 27 0 5 -1 6 3 3 8 -3 5 1 22 11
38 18 32 12 63 -12 63 -11 0 -14 -8 -9 -35 3 -19 1 -42 -4 -51 -9 -15 -11 -14
-22 7 -12 22 -12 23 3 11 14 -12 15 -10 10 25 -6 44 -16 58 -33 48 -8 -5 -7
-11 2 -23 12 -15 11 -16 -4 -3 -10 7 -16 17 -13 21 2 3 -14 7 -36 8 -22 1 -38
-2 -35 -6 2 -4 -2 -16 -10 -27 -8 -10 -14 -14 -14 -9 0 6 5 15 11 21 16 16 -6
26 -31 13 -11 -6 -20 -18 -20 -26 0 -8 -4 -13 -9 -10 -4 3 -16 -12 -26 -34
-10 -22 -22 -37 -27 -34 -4 3 -19 27 -33 53 -13 27 -31 51 -40 55 -27 10 -178
6 -197 -5z m447 -91 c-7 -24 -16 -51 -20 -60 -4 -10 -3 -18 3 -18 6 0 12 6 15
13 3 9 8 9 18 -2 9 -9 9 -11 2 -7 -7 4 -13 2 -13 -3 0 -6 -9 -11 -21 -11 -14
0 -26 -13 -40 -45 -11 -25 -22 -45 -25 -45 -2 0 -13 14 -24 32 l-19 32 25 44
c22 37 24 46 12 60 -12 16 -11 16 6 2 18 -14 19 -13 13 3 -4 10 -3 16 2 13 5
-3 11 1 14 8 3 8 18 16 34 19 15 2 29 5 30 6 0 0 -5 -18 -12 -41z"/>
<path d="M1342 488 c-21 -21 -14 -48 11 -48 28 0 47 17 47 42 0 21 -39 25 -58
6z"/>
<path d="M1169 463 c-21 -5 -122 -280 -117 -320 2 -23 10 -30 39 -37 40 -10
92 8 97 34 2 11 -7 15 -35 15 -37 0 -38 1 -37 36 1 19 12 60 26 90 24 53 26
55 68 57 50 3 60 8 60 28 0 10 -13 14 -46 14 -40 0 -45 2 -39 18 22 52 17 72
-16 65z"/>
<path d="M653 375 c-34 -14 -49 -53 -16 -41 72 28 142 10 129 -31 -6 -17 -18
-22 -69 -28 -34 -4 -74 -13 -89 -21 -57 -30 -88 -105 -54 -133 37 -31 167 -19
200 18 14 16 76 181 76 203 0 4 -9 17 -20 28 -24 24 -107 27 -157 5z m87 -147
c0 -30 -39 -75 -70 -81 -78 -16 -96 58 -20 86 30 11 90 7 90 -5z"/>
<path d="M914 370 c-38 -19 -64 -53 -64 -84 0 -19 27 -39 68 -51 49 -14 63
-39 36 -66 -24 -24 -78 -28 -114 -9 -18 10 -25 9 -38 -4 -15 -15 -15 -17 0
-32 46 -46 181 -17 213 46 26 50 14 76 -46 97 -61 21 -71 39 -38 66 23 19 67
20 111 2 12 -5 20 -1 25 10 16 45 -81 60 -153 25z"/>
<path d="M1455 371 c-97 -44 -160 -186 -106 -240 46 -46 172 -33 179 17 3 21
1 22 -17 13 -51 -28 -121 -2 -121 44 0 30 39 102 63 118 34 22 83 30 108 17
17 -10 24 -9 38 5 15 15 15 17 -3 31 -27 19 -93 17 -141 -5z"/>
<path d="M1674 374 c-38 -19 -68 -67 -60 -99 4 -17 19 -28 57 -40 57 -19 69
-37 44 -65 -20 -23 -83 -27 -117 -9 -16 9 -24 7 -36 -5 -15 -15 -15 -17 1 -33
23 -23 120 -23 163 0 28 14 64 68 64 96 0 19 -41 49 -76 56 -45 8 -55 32 -23
58 23 19 67 20 111 2 26 -10 36 24 13 41 -25 18 -102 17 -141 -2z"/>
<path d="M1256 248 c-36 -99 -44 -133 -34 -139 24 -15 42 10 84 122 51 134 53
149 21 149 -21 0 -28 -14 -71 -132z"/>
</g>
</svg>
